<svg width="64" height="64" viewBox="0 0 64 64" fill="none" xmlns="http://www.w3.org/2000/svg">
<path d="M32 64C49.6731 64 64 49.6731 64 32C64 14.3269 49.6731 0 32 0C14.3269 0 0 14.3269 0 32C0 49.6731 14.3269 64 32 64Z" fill="#00ABE9"/>
<path d="M44.4705 32.3133C44.4705 39.9698 39.6103 45.4193 32.4357 45.4193C30.7877 45.4058 29.1585 45.0478 27.6411 44.3657C26.1238 43.6837 24.7483 42.691 23.5932 41.4445C22.4382 40.198 21.5263 38.7221 20.9098 37.1014C20.2934 35.4807 19.9844 33.747 20.0006 31.9995C19.9846 30.252 20.2937 28.5183 20.9104 26.8977C21.527 25.2771 22.439 23.8013 23.5942 22.555C24.7494 21.3086 26.1251 20.3161 27.6425 19.6342C29.1599 18.9523 30.7892 18.5945 32.4371 18.5812C35.5437 18.5472 38.5387 19.8085 40.7768 22.0935L37.3903 25.6102C32.9589 21.0005 24.7293 24.4627 24.7293 32.0056C24.696 34.2114 25.4885 36.3413 26.9333 37.9287C28.378 39.5161 30.3571 40.4316 32.4371 40.4746C34.0758 40.5846 35.6962 40.0582 36.9955 38.9937C38.2949 37.9291 39.1842 36.3993 39.4974 34.6901H32.4371V30.0744H44.2761C44.4071 30.8126 44.4722 31.5622 44.4705 32.3133V32.3133Z" fill="white"/>
</svg>
