<svg width="65" height="64" viewBox="0 0 65 64" fill="none" xmlns="http://www.w3.org/2000/svg">
<path d="M32.8572 64C50.5303 64 64.8572 49.6731 64.8572 32C64.8572 14.3269 50.5303 0 32.8572 0C15.1841 0 0.857178 14.3269 0.857178 32C0.857178 49.6731 15.1841 64 32.8572 64Z" fill="#4486CC"/>
<path d="M44.1512 32.3134C44.1512 39.9699 39.291 45.4194 32.1164 45.4194C30.4684 45.4059 28.8391 45.0479 27.3218 44.3658C25.8045 43.6838 24.4289 42.6911 23.2739 41.4446C22.1188 40.198 21.207 38.7222 20.5905 37.1015C19.974 35.4808 19.6651 33.7471 19.6813 31.9996C19.6652 30.2521 19.9744 28.5184 20.591 26.8978C21.2077 25.2772 22.1197 23.8014 23.2749 22.555C24.4301 21.3087 25.8057 20.3161 27.3231 19.6343C28.8405 18.9524 30.4698 18.5946 32.1178 18.5813C35.2244 18.5473 38.2193 19.8086 40.4574 22.0935L37.071 25.6103C32.6396 21.0006 24.41 24.4628 24.41 32.0056C24.3767 34.2114 25.1692 36.3413 26.6139 37.9287C28.0586 39.5161 30.0378 40.4316 32.1178 40.4747C33.7565 40.5847 35.3769 40.0583 36.6762 38.9937C37.9755 37.9292 38.8649 36.3994 39.178 34.6902H32.1178V30.0745H43.9568C44.0877 30.8126 44.1528 31.5622 44.1512 32.3134Z" fill="white"/>
</svg>
